# xmcd
#
# Track frame offsets:
# 150
# 19965
# 42092
# 63357
# 82627
# 101397
# 120930
# 141585
# 160357
# 183775
#
# Disc length: 2669 seconds
#
# Revision: 0
# Processed by: cddbd v1.4PL0 Copyright (c) Steve Scherf et al.
# Submitted via: MacMP3 Pro 5.0 (http://mp3.act2.co.jp/)
#
DISCID=740a6b0a
DTITLE=Seiko MATSUDA - Celebration Disc2
DYEAR=1900
DGENRE=
TTITLE0=Celebration Disc201
TTITLE1=Celebration Disc202
TTITLE2=Celebration Disc203
TTITLE3=Celebration Disc204
TTITLE4=Celebration Disc205
TTITLE5=Celebration Disc206
TTITLE6=Celebration Disc207
TTITLE7=Celebration Disc208
TTITLE8=Celebration Disc209
TTITLE9=Celebration Disc210
EXTD=
EXTT0=
EXTT1=
EXTT2=
EXTT3=
EXTT4=
EXTT5=
EXTT6=
EXTT7=
EXTT8=
EXTT9=
PLAYORDER=
